<svg xmlns="http://www.w3.org/2000/svg" width="860" height="470" aria-labelledby="t" viewBox="0 0 860 470"><title>Five independent places the DNS storm could have been prevented</title><rect width="860" height="470" fill="#fdfcfa" rx="14"/><text x="430" y="32" fill="#1b1f23" dominant-baseline="central" font-family="'Inter', ui-sans-serif, -apple-system, 'Segoe UI', Roboto, Helvetica, Arial, sans-serif" font-size="22.5" font-weight="600" style="white-space:pre" text-anchor="middle">Five places this could have been stopped</text><text x="430" y="58" fill="#6b7280" dominant-baseline="central" font-family="'Inter', ui-sans-serif, -apple-system, 'Segoe UI', Roboto, Helvetica, Arial, sans-serif" font-size="16" font-weight="400" style="white-space:pre" text-anchor="middle">any one of them, on its own, would have been enough</text><path fill="#b2f2bb" d="M66 86.5c2.4 3.6 11.9 1.1 27.6-.7 9.5-.1 9 6.9 14.6 13.3-5 10.7-3.5 17-3.2 26.3 1.4 7.6-5.1 19.8-12.5 13.8-8.3 3.9-18-.4-28.9-.6-3.2 6.3-12.4-1.2-10.6-11-1.6-7.4.7-17.9-.3-25.8C54 94 59.8 85.5 66.8 84.7L65.5 88"/><path fill="none" stroke="#2b8a3e" stroke-linecap="round" stroke-linejoin="round" stroke-width="2" d="M67.5 86.8c5.8.8 14.4 2.1 26.2-.6m-29.2 1c7.8 1 14.7 1.5 29 .5m-1 .3c9.3 1.8 12 8 11.5 13.2M90.8 89c8.6-2.3 14.3 5.5 16 11.5m.2-.2c-2.7 7.4.1 15 .4 27M107 101c-1.8 8.6-1.4 18-1.8 28.2m.8-.7c2.2 9.5-4 14-13.1 15m13.4-17.2c-1 11.6-7.5 17.9-15.7 13.4m1.1.6c-3.1 0-13.4 3-24.4 2.1m25.4-1.2c-5.3 0-10.8.2-28.3 1.4m1.1-.6c-9.2-2.1-15.3-6.7-11.6-13.9M66.2 143c-8.8 0-16-9.4-14.4-12.5m0-4.2c1.2-7.2-1.1-15.4 1.3-26.5M52 128.5a119 119 0 0 1 1-27.4m-1 .4c2.1-9.7 7.3-12.7 12.2-13m-10.3 11c-3.2-4.2 5.7-9.2 11.4-9.5m.2-2.1q0 0 0 0m0 0q0 0 0 0"/><text x="79" y="115" fill="#1b1f23" dominant-baseline="central" font-family="'Inter', ui-sans-serif, -apple-system, 'Segoe UI', Roboto, Helvetica, Arial, sans-serif" font-size="19" font-weight="700" style="white-space:pre" text-anchor="middle">1</text><path fill="#fff" d="M132 88.3c177.1 2.2 356.3 1 662 0 11.7-1.7 15.1 8.7 14 14.7 1.7 8.6-.7 17.7-.7 23.2 4.2 13.4-6.2 13.2-11.7 17.2-163.3-.7-327.3.4-665-1-5.8 1.3-11.1-5.6-13.2-17.2 1.4-10.7 1.1-20.8-2.6-20.3 5.4-10.7 11.6-20.4 18.7-17l-2 .1"/><path fill="none" stroke="#6b7280" stroke-linecap="round" stroke-linejoin="round" stroke-width="2" d="M130.8 87.3c177.4-1 354.3-1.5 663.3.8M131.6 88c255-1.8 510.8-1.8 662.8 0m.1.1c6 2 15.2 5.3 11.5 15M796 88c6.2.5 13.3 5.3 12.3 12.7m-1.5 0a271 271 0 0 1 2.4 29.3m-1.4-29.5c-.9 12.8-.4 22-.3 28.2m.5-.1c-1.3 8.2-7 14.1-12.5 15.2m14.3-13.1c-.5 6.7-6 9.3-14.6 9.2m-.7 1.7c-232-1.4-462.6-2.7-663.8 1.2m663.5-1c-162.3 3-324.3 2.7-662.3 0m-.4.3c-7.3-2.2-13.5-7.2-14-11.8m13.9 11.5c-6.3-2.1-14-7.2-15.2-13.8m3.9 1.8c-3-7.5-.9-16-3.2-27.5m.4 26.9c-.3-8.3 1.7-15.5.6-27.4m.1-.2c1.6-8 6.6-15.6 13.1-12.4m-14.3 10.7c2.3-3.5 8.1-13 15-10.5m-.3-1.3q0 0 0 0m0 0q0 0 0 0"/><text x="142" y="115" fill="#1b1f23" dominant-baseline="central" font-family="'Inter', ui-sans-serif, -apple-system, 'Segoe UI', Roboto, Helvetica, Arial, sans-serif" font-size="14.5" font-weight="500" style="white-space:pre">Create the missing record. 99.4% of the traffic disappears.</text><path fill="#ffc9c9" d="M67.2 153.5c5.3 1.6 15.5-1.5 24.5-3.8 8.3.5 17.9 7.3 16.1 14.2-1.6 12.4-2.7 18.6-2.6 25.8 2.5 12.9-5.2 14.9-12.9 15.6-10.1.7-16.9-2.6-28.5 1.8-2 .8-12-10.2-13.5-18.2-1.6-9.2 1.2-16.6-1.7-25.6 6.2-2 8.5-13.8 18.3-13.1l-1.4 1.8"/><path fill="none" stroke="#c92a2a" stroke-linecap="round" stroke-linejoin="round" stroke-width="2" d="M67.3 151.6c5.8-.2 13.2 1.6 26-.3m-28 1.2c8.8-.5 18.3.6 26.7 0m.5-.5c7 .4 15.6 6.5 13 13.8M90.6 151c10.3 2 13.5 8.6 13.1 13.6m1.8 1.4c2 5.6-.8 13.3-.4 26.1m1.7-26.4c-.6 8.1-2 17.4-1.1 27.1m.2-.4c.1 6.5-6.8 15.6-15.4 13.6m14.3-14.4c.3 10.2-6.3 15.2-14.1 14.4m2.7 1.8c-12.5-2.3-21-2.2-28.7-3.2m27.3.9a96 96 0 0 1-26.6.2m0 .2c-9.2.6-14.3-4.6-12.7-11.8m11 13.3c-7.2 0-12.6-9.9-13.8-15.6m2.2-1.3c.3-6.3-.3-17.9-1.8-25.8m.9 27.4c0-8.1.4-15.5.6-26.7m.1 0c.5-7.7 7.4-14.2 14.8-13.4m-16 12.2c.4-4.6 6.5-13.1 14.7-10m0-2.3q0 0 0 0m0 0q0 0 0 0"/><text x="79" y="179" fill="#1b1f23" dominant-baseline="central" font-family="'Inter', ui-sans-serif, -apple-system, 'Segoe UI', Roboto, Helvetica, Arial, sans-serif" font-size="19" font-weight="700" style="white-space:pre" text-anchor="middle">2</text><path fill="#fff" d="M131.8 151.3c241.4-2.4 481.7-.9 662.3 1.5 6-.3 10.5 7.3 10.8 12.8 2 8.7 5 17.4-.7 30.4 3.6 3.4-.3 12-8.4 9.7-249 1.4-495.3.3-665.6 1.7-3.4.3-14.5-5.8-13-12.3-.1-14.4 3.2-21.6-.6-30.5 2.3-9.5 9.2-9 12-15.2l2.9 2.6"/><path fill="none" stroke="#6b7280" stroke-linecap="round" stroke-linejoin="round" stroke-width="2" d="M131.7 151.3c188.7-2.1 377-2.2 662 .6m-661.8.5a29699 29699 0 0 0 663 0m-.4-.4c7.6.4 12.7 3.9 12.4 11.4M793 151.2c8.5-.9 12.8 7 13.5 12.9m2.5 2.2c-1 4.5-.3 11.7-1.9 28m0-28.9c.5 5.1 1.6 11.3 2 27.3m-1.1-.2c1.8 8.7-8.2 14.2-14.4 12.3m12.8-12.2c3.8 9.7-5.4 11.4-11.5 13.2m.5 1c-254.8-1.8-508.7-2.2-664.6-.6m663.4-.3c-242.5-1.2-486.2-1.4-663 0m.3.1c-8.7-.8-15.3-4.5-14.1-12.5m12 10.6c-5.8 3.3-12.6-4.8-12.8-10.4m2.5-1.5a52 52 0 0 0-2.7-26.3m.6 26.7c.3-8.3 1.5-15.5.6-26.2m.4-.9c-2-8.5 4.6-11.5 12.1-15.4m-10.6 14.5c-2.5-7.8 4-13.8 13-14.3m-1 1.7q0 0 0 0m0 0q0 0 0 0"/><text x="142" y="179" fill="#1b1f23" dominant-baseline="central" font-family="'Inter', ui-sans-serif, -apple-system, 'Segoe UI', Roboto, Helvetica, Arial, sans-serif" font-size="14.5" font-weight="500" style="white-space:pre">Make the logger fail closed after N failures. The actual defect.</text><path fill="#ffec99" d="M62.4 218.6c11.6-4 17.4-3 33.2-2.5 1.1-.3 6.7 5.2 10.2 15.8 2.1 7-1.4 7.8.6 22.3 2.3 12.3-10.2 14.3-11 17.3a51 51 0 0 1-27.4-4.3c-6.5-.3-19.3-.6-19.7-7.2 5-10 1.7-20.7 1.8-30 .8-11.2 8.2-16 11.7-14.7l3.7.7"/><path fill="none" stroke="#e67700" stroke-linecap="round" stroke-linejoin="round" stroke-width="2" d="M66.9 215.8c2.8 2 12.6.2 25.1 1m-27.2-1c11.6 1.2 22.8 1 27 .8m.7-.6c5.7-2.1 15.6 6.7 14.4 12.8M94.5 218c7.3-3.9 14 4.5 11.5 10.5m-.5 2.6a57 57 0 0 0 2 25m-2.3-26.6c.7 9 .4 18.5-.2 27m1-.1c.7 5.4-5.5 11.5-12.6 13.3m13.5-11.4c-2.3 6.2-7.7 12.9-16.3 10.6m2.6.5c-9.6 2-17.5 1.8-27.2 1.2m26.1-1.4c-7.5.1-15 .7-27 1m.4-.3c-8.4 1.6-13.7-7-12.4-15.6m12.1 16.5c-5.9-1.5-13.1-7.4-11.4-14.6m-1-.5c.4-9.9 0-19.1.3-25.7m-2 25.4c1.4-5.9 1-11.5.2-26.5m.7.5c.9-5.9 5.5-11.9 14-11.6m-14 12.7c0-6.4 7.2-16 14.8-12.6m-1.3-2q0 0 0 0m0 0q0 0 0 0"/><text x="79" y="243" fill="#1b1f23" dominant-baseline="central" font-family="'Inter', ui-sans-serif, -apple-system, 'Segoe UI', Roboto, Helvetica, Arial, sans-serif" font-size="19" font-weight="700" style="white-space:pre" text-anchor="middle">3</text><path fill="#fff" d="M132 216.5c199.9 1.8 397.9 1 661.2-1.1 5-.4 14.8 8.9 14 16.3 2.6 6.9-2.4 17 2.6 27.1-4 5.1-6.7 12.7-13 13.6-251-6.4-499.5-4.4-666.1-3.7-3.3 0-9.3-5.7-13.7-15.2 4.3-6.4-.5-19.2 3.5-24.9-5.7-9.5 5.3-11 9.4-12l1.6-.6"/><path fill="none" stroke="#6b7280" stroke-linecap="round" stroke-linejoin="round" stroke-width="2" d="M131.5 215.1c172.5 3.5 344.4 2.3 662.8 1.3m-662.4-.5c195.5 2 392.6 2.1 663-.3m-.4.4c5.3-.7 15.1 7.4 12.5 15m-11.4-16.4c6.1.5 10.1 8.1 10.3 14.6m2.2 1c2 6.3.1 11.6-1.4 25.7m2.4-26c0 6.5-1 13.9-1.3 27.6m.2-1c1.4 5.6-7.8 13.9-14.3 12.6m14.3-11.5c-.2 8.8-4.9 13-11.3 13.2m-1.4-1.5a54170 54170 0 0 0-664.5 0m664 .8a38451 38451 0 0 1-663.2-.3m-.1.2c-7.6-1.3-11.9-5.7-11.6-11.8m13.5 13.7c-8.2-.8-17.3-6.5-17.7-15.9m1.6-.5c2.4-7.4-1.2-15 2.7-25.8m-1.3 26.8c.4-9.8-.6-21-1.1-26.5m.4-.5c.2-6.7 6.6-12 14.9-13.9m-15.4 15.7c0-7 5.1-14.6 14.7-17.7m-.7 2.4q0 0 0 0m0 0q0 0 0 0"/><text x="142" y="243" fill="#1b1f23" dominant-baseline="central" font-family="'Inter', ui-sans-serif, -apple-system, 'Segoe UI', Roboto, Helvetica, Arial, sans-serif" font-size="14.5" font-weight="500" style="white-space:pre">Standardise NODE_ENV. Two spellings made two dead hostnames.</text><path fill="#a5d8ff" d="M68 278.1c5.1-.8 17.3 2.8 25.6 2 9.2-3.9 15.4 5.8 12.4 16.5 2.4 2.4 2.1 12.4-.2 21 3.4 13.7-5.7 19.9-13.3 18.3-13.6-1-21.6-2.4-30.3-5.1-4.5 4.2-7.4-4.3-11.2-10 4-14 1.8-22 .7-29.8 1.2-3.6 4-11.1 11-12.2l2.8 1.2"/><path fill="none" stroke="#1971c2" stroke-linecap="round" stroke-linejoin="round" stroke-width="2" d="M65.5 281.5c6.3-1.8 12.7-.6 29-2.8m-29.7 2c7.8-1 17 .2 28.7-1.5m-1 .8c5.8 1.3 12.3 7.6 13.1 12.1m-14-11.7c8.3-2.5 12.6 5.3 14 15.5m2.4-4.2c-2.8 5.9-4 14.5 0 26.8m-2.8-25c1.2 6.7-.1 14 1.7 27m-.9 0c-2.1 7.5-4.5 15.3-13.6 13.8m13.4-12.1c-2.3 4-6.2 13-12.3 11.8m0 1.4c-12.5-.7-21.5-.2-26.8-1m25.2-.3c-9.9-.4-20 1-26.8 1m.4-1.1c-6 .4-12.6-7.8-14.1-13.8m12.3 13.2c-4.3 2-10.6-4.3-13-10.7m-.4-.7c.4-10.2 1.7-21.5 3.5-29m-1 27.3c0-7-.4-12.4-1.5-26.5m.7-.3c-2-8.2 5.9-11.5 14.6-13.1M51 293.7c.5-6.5 8.6-14.4 16-13.9m-1.6.2q0 0 0 0m0 0q0 0 0 0"/><text x="79" y="307" fill="#1b1f23" dominant-baseline="central" font-family="'Inter', ui-sans-serif, -apple-system, 'Segoe UI', Roboto, Helvetica, Arial, sans-serif" font-size="19" font-weight="700" style="white-space:pre" text-anchor="middle">4</text><path fill="#fff" d="M130.7 280.7c183.2-5 363.6-3.9 662.5.3 6.8 2 17 5.6 11.1 9 1.2 11.1 3.5 23.4 0 31 1.4 4-1.3 9.3-13.4 10-208.6 3.5-423.1 4.5-659.7 4.4-10 .8-13-6.7-12.8-13.7-3.9-14.1 1.1-18.8 0-31.7-2.8-3.8 3.7-13.2 14.8-10.2l-1.7.2"/><path fill="none" stroke="#6b7280" stroke-linecap="round" stroke-linejoin="round" stroke-width="2" d="M131.2 279.5c164.6-.2 327.6-.8 663.7 1.2m-663-.8c149-2.1 299-1.3 662.4.2m.2-.1a20 20 0 0 1 14 14.7m-12.6-16.6c8 1.5 12.5 8 12.4 16.5m.8-2c.9 7.4-2 18.8-.7 30m-1-29.5c.4 8.9 1.6 18.2 1.3 27.3m-.7.1c.6 5.6-6.6 15-15.5 11.4m16.2-10.1c-.2 3.6-6.5 11.1-13.7 14m-.6-1.8c-202 2.3-403 2.3-663.4-.3m663.6.5c-208.8.8-416.8.6-662.7 0m-.4-.2c-9.3.7-15-4.4-12.2-13.9m10.2 13c-6.5-1.6-12.2-6.8-12-14.4m.8-.2a110 110 0 0 1-.2-27m.2 28.5c-.8-8.3-.3-15 .3-26.6m-.6.1c-.4-5.3 7.4-12.4 15.3-11.5m-16.6 12.6c3.8-7.6 7.6-15.7 14.8-13m0-1.6q0 0 0 0m0 0q0 0 0 0"/><text x="142" y="307" fill="#1b1f23" dominant-baseline="central" font-family="'Inter', ui-sans-serif, -apple-system, 'Segoe UI', Roboto, Helvetica, Arial, sans-serif" font-size="14.5" font-weight="500" style="white-space:pre">Run a caching resolver on the host. It contains the next mistake.</text><path fill="#e9ecef" d="M62.1 342c10.7.1 22 1.7 31.6-1.7 3.4 6.4 8.7 7.7 13.2 16.9 2.3 11.5 2 23 .8 28.2 2 5.2-9.1 10.9-13.8 16.2-6-5.2-14 .2-29.6-5-4 3-16-3-12.6-10-1.6-10-1.3-13.8-3.4-29.7.6-3.4 8.3-16.4 20.4-14.6l-3.2 1.7"/><path fill="none" stroke="#868e96" stroke-linecap="round" stroke-linejoin="round" stroke-width="2" d="M63.7 343.4c6 2 15.6 1.5 30.1.2m-28.5.3c7.2-.6 13 .5 26.9-.9m.3 1c7.4 1.1 15.7 5.2 14.1 11.6m-15.8-11.3a12 12 0 0 1 12.7 14.8m2.2-1.8c.3 8.3.5 20.8-1.8 25.2m2-24.4c.2 6.2 0 12.5-.6 25.5m.7.9c-1.3 8.2-7.6 12.9-14 11.5m12.6-10.7c2.7 9.1-4.6 14-14.1 15m1.7-3.2c-8 3-15.8 1.8-27.5 2.5m28.3-1.8c-5.6.4-12.3.6-27.1.8m-.4-.6c-9 1.1-13.8-4.8-14.6-13.2M65 398.7c-6.2-2-11.5-7-12.2-14.4m-1.7-1.4c2.2-9-1-17.1 1.9-23.3m-1.4 25.5c1.2-10 .8-20.8.1-27.7m.3.1c2-6.3 5.4-14.5 14.1-11.7m-14 12.2c1.5-6.9 8.2-15.5 12.4-14.2m1 .2q0 0 0 0m0 0q0 0 0 0"/><text x="79" y="371" fill="#1b1f23" dominant-baseline="central" font-family="'Inter', ui-sans-serif, -apple-system, 'Segoe UI', Roboto, Helvetica, Arial, sans-serif" font-size="19" font-weight="700" style="white-space:pre" text-anchor="middle">5</text><path fill="#fff" d="M131.9 344.2c203.4.8 403.9 2.1 662.2-1.4 8.3 2.5 17.4 4.3 17.4 13.4-3 12.2-.1 23.5 0 26.9-5.1 10-12.1 14.7-13.5 18-173.5-5-341.4-3-666.6-4.3-5-.7-15.3-5-15.3-9.7 2-12.5-.3-23.4.9-31.6 4.5-1.8 7.9-10.3 14-10.6l.5-.9"/><path fill="none" stroke="#6b7280" stroke-linecap="round" stroke-linejoin="round" stroke-width="2" d="M131 343.9c212.4.8 424.6-.3 663.8.7m-663.7-.4c179.8-.4 358.6-1 663.7-.5m-.3.3c8.5-.2 15.3 7 14.5 11.9m-15.4-11.5c6.4.2 15.8 6.3 15.2 13m.8-1.8c-.5 11.3-1.4 17.9-2.7 28m1.6-26.4c-1.4 9.2.2 16.1-.6 27.7m.1-.4c.9 8.5-6.3 13.4-13.8 13.1m14.6-12.8c-3.1 9.2-7.5 13.9-11.8 11m-3.2 2.2c-133-2-265-3-663-.6m663.5.2a29116 29116 0 0 0-663 .8m.2-.4c-5.6-1-12.2-4-12.5-12.6m14.3 13c-8-1.3-12.8-6.9-16.5-16.4m.5.3c-1-7.6.4-19.4.6-23.6m0 25.6c.1-6.3-.5-13 0-27.9m.1 1.1q1.2-14.6 14.8-12.8m-12.7 13.1c-4-6 5-16.3 10.3-11.8m1.1-2q0 0 0 0m0 0q0 0 0 0"/><text x="142" y="371" fill="#1b1f23" dominant-baseline="central" font-family="'Inter', ui-sans-serif, -apple-system, 'Segoe UI', Roboto, Helvetica, Arial, sans-serif" font-size="14.5" font-weight="500" style="white-space:pre">Alert on DNS queries per host. Nobody has this on a dashboard.</text><text x="430" y="434" fill="#1b1f23" dominant-baseline="central" font-family="'Inter', ui-sans-serif, -apple-system, 'Segoe UI', Roboto, Helvetica, Arial, sans-serif" font-size="15.5" font-weight="400" style="white-space:pre" text-anchor="middle">Only number 2 is a bug. The other four are the reasons it stayed invisible.</text><text x="20" y="457" fill="#1b1f23" fill-opacity=".3" font-family="'Inter', ui-sans-serif, -apple-system, 'Segoe UI', Roboto, Helvetica, Arial, sans-serif" font-size="11.5" letter-spacing=".3">DNS storm postmortem</text><text x="840" y="457" fill="#1b1f23" fill-opacity=".2" font-family="'Inter', ui-sans-serif, -apple-system, 'Segoe UI', Roboto, Helvetica, Arial, sans-serif" font-size="11.5" letter-spacing=".3" text-anchor="end">rushabhshah.dev</text></svg>